<?xml version="1.0" encoding="utf-8"?>
<svg version="1.1" xmlns:xlink="http://www.w3.org/1999/xlink" width="21px" height="18px" xmlns="http://www.w3.org/2000/svg">
  <g transform="matrix(1 0 0 1 -92 -28 )">
    <path d="M 17.52736019242333 9.882102272727273  C 17.69573060733614 9.95028409090909  17.779915814792545 10.073863636363635  17.779915814792545 10.252840909090908  L 17.779915814792545 14.318181818181817  C 17.779915814792545 15.332386363636363  17.42423331328924 16.199573863636363  16.712868310282623 16.919744318181817  C 16.001503307276007 17.639914772727273  15.144918821407098 18  14.143114852675888 18  L 3.6368009621166566 18  C 2.6349969933854482 18  1.7784125075165365 17.639914772727273  1.067047504509922 16.919744318181817  C 0.3556825015033072 16.199573863636363  0 15.332386363636363  0 14.318181818181817  L 0 3.6818181818181825  C 0 2.667613636363634  0.3556825015033072 1.8004261363636356  1.067047504509922 1.0802556818181825  C 1.7784125075165365 0.3600852272727255  2.6349969933854482 0  3.6368009621166566 0  L 14.143114852675888 0  C 14.673481659651232 0  15.165965123271196 0.10653409090908994  15.620565243535777 0.3196022727272718  C 15.746843054720385 0.3792613636363624  15.822609741431148 0.47727272727272685  15.84786530366807 0.6136363636363631  C 15.873120865904992 0.7585227272727268  15.835237522549608 0.8821022727272718  15.734215273601926 0.984375  L 15.115453998797355 1.6107954545454544  C 15.031268791340953 1.6960227272727255  14.934455802766086 1.738636363636363  14.82501503307276 1.738636363636363  C 14.79975947083584 1.738636363636363  14.761876127480456 1.7301136363636356  14.711365003006614 1.7130681818181825  C 14.517739025856887 1.6619318181818175  14.328322309079976 1.636363636363637  14.143114852675888 1.636363636363637  L 3.6368009621166566 1.636363636363637  C 3.08117859290439 1.636363636363637  2.605532170775707 1.8366477272727255  2.2098616957306074 2.2372159090909087  C 1.8141912206855084 2.63778409090909  1.6163559831629586 3.1193181818181825  2 3.6818181818181825  L 2 14.318181818181817  C 1.6163559831629586 14.880681818181817  1.8141912206855084 15.362215909090907  2.2098616957306074 15.762784090909092  C 2.605532170775707 16.163352272727273  3.08117859290439 16.363636363636363  3.6368009621166566 16.363636363636363  L 14.143114852675888 16.363636363636363  C 14.698737221888154 16.363636363636363  15.174383644016839 16.163352272727273  15.570054119061936 15.762784090909092  C 15.965724594107039 15.362215909090907  16.163559831629584 14.880681818181817  16.163559831629584 14.318181818181817  L 16.163559831629584 11.071022727272727  C 16.163559831629584 10.960227272727273  16.201443174984966 10.866477272727273  16.27720986169573 10.789772727272727  L 17.08538785327721 9.971590909090908  C 17.169573060733615 9.886363636363635  17.26638604930848 9.84375  17.375826819001805 9.84375  C 17.426337943475648 9.84375  17.476849067949487 9.856534090909092  17.52736019242333 9.882102272727273  Z M 21 3.2727272727272716  C 21 3.5539772727272716  20.898977751052318 3.796875  20.696933253156946 4.001420454545454  L 10.417919422730007 14.407670454545455  C 10.215874924834639 14.612215909090908  9.975947083583886 14.714488636363637  9.698135898977752 14.714488636363637  C 9.420324714371617 14.714488636363637  9.180396873120864 14.612215909090908  8.978352375225496 14.407670454545455  L 3.5484064942874323 8.910511363636363  C 3.3463619963920626 8.705965909090908  3.2453397474443775 8.463068181818183  3.2453397474443775 8.181818181818183  C 3.2453397474443775 7.900568181818181  3.3463619963920626 7.657670454545452  3.5484064942874323 7.453125  L 4.937462417318099 6.046875  C 5.139506915213469 5.842329545454546  5.379434756464221 5.7400568181818175  5.6572459410703555 5.7400568181818175  C 5.935057125676489 5.7400568181818175  6.17498496692724 5.842329545454546  6.37702946482261 6.046875  L 9.698135898977752 9.409090909090908  L 17.86831028262177 1.1377840909090913  C 18.07035478051714 0.9332386363636369  18.31028262176789 0.8309659090909087  18.588093806374022 0.8309659090909087  C 18.865904990980155 0.8309659090909087  19.10583283223091 0.9332386363636369  19.307877330126278 1.1377840909090913  L 20.696933253156946 2.5440340909090913  C 20.898977751052318 2.748579545454546  21 2.9914772727272716  21 3.2727272727272716  Z " fill-rule="nonzero" fill="#278428" stroke="none" transform="matrix(1 0 0 1 92 28 )" />
  </g>
</svg>