<?xml version="1.0" encoding="utf-8"?>
<svg version="1.1" xmlns:xlink="http://www.w3.org/1999/xlink" width="24px" height="23px" xmlns="http://www.w3.org/2000/svg">
  <g transform="matrix(1 0 0 1 -92 -26 )">
    <path d="M 12 0  L 16 3.99996915253179  L 16 2  C 16 1.439999999999998  16.439999999999998 1  17 1  L 19 1  C 19.560000000000002 1  20 1.439999999999998  20 2  L 20.000030843259623 8.000030843259623  L 24 12  L 22.000088626025303 12.000088626025303  L 12 2  L 1.9998227384788265 12  L 0 12  L 12 0  Z M 10 21  C 10 22.120000000000005  9.120000000000005 23  8 23  L 5 23  C 3.8799999999999955 23  3 22.120000000000005  3 21  L 3 12  L 12 3  L 21 12  L 21 21  C 21 22.120000000000005  20.120000000000005 23  19 23  L 16 23  C 14.879999999999995 23  14 22.120000000000005  14 21  L 13.999999999994998 15  L 10 14.999976867638992  L 10 21  Z " fill-rule="nonzero" fill="#278428" stroke="none" transform="matrix(1 0 0 1 92 26 )" />
  </g>
</svg>