<?xml version="1.0" encoding="utf-8"?>
<svg version="1.1" xmlns:xlink="http://www.w3.org/1999/xlink" width="20px" height="18px" xmlns="http://www.w3.org/2000/svg">
  <g transform="matrix(1 0 0 1 -95 -28 )">
    <path d="M 20 2  L 20 4  L 16.834902499135495 3.9999985094881083  C 16.430902302238906 5.17530728287781  15.327909248908838 6  14 6  C 12.672092763788129 6  11.569101041349711 5.175309782830681  11.165110547780642 4  L 0 4  L 0 2  L 11.16509933788484 2  C 11.569101041349711 0.8246902171693193  12.672092763788129 0  14 0  C 15.327909248908838 0  16.430902302238906 0.8246927171221898  16.83490683637416 2  L 20 2  Z M 20 14  L 20 16  L 16.834902499135495 15.999998509488137  C 16.430902302238906 17.17530728287784  15.327909248908838 18  14 18  C 12.672092763788129 18  11.569101041349711 17.17530978283071  11.165110547780642 16  L 0 16  L 0 14  L 11.16509933788484 14  C 11.569101041349711 12.824690217169291  12.672092763788129 12  14 12  C 15.327909248908838 12  16.430902302238906 12.824692717122161  16.83490683637416 14  L 20 14  Z M 0 8  L 3.165097500864505 8.000001490511892  C 3.5690976977610944 6.82469271712219  4.672090751091162 6  6 6  C 7.327907236211871 6  8.430898958650289 6.824690217169319  8.834889452219358 8  L 20 8  L 20 10  L 8.83490066211516 10  C 8.430898958650289 11.17530978283068  7.327907236211871 12  6 12  C 4.672090751091162 12  3.5690976977610944 11.17530728287781  3.1650931636258406 10  L 0 10  L 0 8  Z " fill-rule="nonzero" fill="#278428" stroke="none" transform="matrix(1 0 0 1 95 28 )" />
  </g>
</svg>