<?xml version="1.0" encoding="utf-8"?>
<svg version="1.1" xmlns:xlink="http://www.w3.org/1999/xlink" width="23px" height="22px" xmlns="http://www.w3.org/2000/svg">
  <g transform="matrix(1 0 0 1 -92 -26 )">
    <path d="M 18.30000000000001 1  L 18.599999999999994 0  L 20.400000000000006 0  L 20.70000000025388 1  L 23 1  L 23 18  C 23 20.06155338903949  21.509246615610294 21.716537673245398  19.52555403351238 21.967138667087283  C 17.900867498235954 21.7391421478477  16.68421052631578 20.350941505757362  16.68421052631578 18.62500005379303  L 16.68421052631578 17.5  L 16.68421052631578 16.375  C 16.68421052631578 14.484999999999985  15.225263157894744 13  13.36842105263159 13  L 6 13.000000431198515  L 6 1.9999777156751577  L 6 1  L 6.3000000000000105 1  L 6.599999999999993 0  L 8.400000000000006 0  L 8.69998945790391 1  L 10.300000000000011 1  L 10.599999999999994 0  L 12.400000000000006 0  L 12.699999836023409 1  L 14.300000000000011 1  L 14.599999999999994 0  L 16.400000000000006 0  L 16.700000028763412 1  L 18.30000000000001 1  Z M 16 18  L 16 19.00000004781603  C 16 20.680000021039064  17.319999999999993 22  18.99929516209744 22  L 12.999999999999998 22  L 8.990144880576565 22  L 3 22  C 1.3199999999999932 22  0 20.680000000000007  0 19  L 0 17  C 0 15.319999999999993  1.3199999999999932 14  3 14  L 12.999999999999998 14  C 14.680000000000007 14  16 15.319999999999993  16 17  L 16 18  Z M 10 5  C 9.439999999999998 5  9 5.439999999999998  9 6  C 9 6.560000000000002  9.439999999999998 7  10 7  L 19 7  C 19.560000000000002 7  20 6.560000000000002  20 6  C 20 5.439999999999998  19.560000000000002 5  19 5  L 10 5  Z M 12.999999999999998 9  C 12.439999999999996 9  12 9.439999999999998  12 10  C 12 10.560000000000002  12.439999999999996 11  12.999999999999998 11  L 19 11  C 19.560000000000002 11  20 10.560000000000002  20 10  C 20 9.439999999999998  19.560000000000002 9  19 9  L 12.999999999999998 9  Z " fill-rule="nonzero" fill="#278428" stroke="none" transform="matrix(1 0 0 1 92 26 )" />
  </g>
</svg>