<?xml version="1.0" encoding="utf-8"?>
<svg version="1.1" xmlns:xlink="http://www.w3.org/1999/xlink" width="17px" height="26px" xmlns="http://www.w3.org/2000/svg">
  <g transform="matrix(1 0 0 1 -870 -748 )">
    <path d="M 17 13  C 17 13.279569892473118  16.896074646074645 13.521505376344084  16.68822393822394 13.725806451612902  L 4.512548262548263 25.693548387096776  C 4.304697554697555 25.897849462365592  4.058558558558559 26  3.7741312741312742 26  C 3.4897039897039903 26  3.243564993564994 25.897849462365592  3.0357142857142856 25.693548387096776  L 0.3117760617760618 23.016129032258064  C 0.10392535392535408 22.811827956989248  0 22.569892473118276  0 22.290322580645164  C 0 22.010752688172044  0.10392535392535408 21.768817204301076  0.3117760617760618 21.564516129032256  L 9.025096525096526 13  L 0.3117760617760618 4.435483870967743  C 0.10392535392535408 4.231182795698922  0 3.9892473118279557  0 3.7096774193548376  C 0 3.4301075268817165  0.10392535392535408 3.1881720430107503  0.3117760617760618 2.9838709677419355  L 3.0357142857142856 0.3064516129032251  C 3.243564993564994 0.1021505376344074  3.4897039897039903 0  3.7741312741312742 0  C 4.058558558558559 0  4.304697554697555 0.1021505376344074  4.512548262548263 0.3064516129032251  L 16.68822393822394 12.274193548387098  C 16.896074646074645 12.478494623655912  17 12.720430107526882  17 13  Z " fill-rule="nonzero" fill="#ffffff" stroke="none" transform="matrix(1 0 0 1 870 748 )" />
  </g>
</svg>