<?xml version="1.0" encoding="utf-8"?>
<svg version="1.1" xmlns:xlink="http://www.w3.org/1999/xlink" width="23px" height="20px" xmlns="http://www.w3.org/2000/svg">
  <g transform="matrix(1 0 0 1 -15 -397 )">
    <path d="M 19.196632591701743 10.980113636363637  C 19.381038284225298 11.055871212121211  19.47324113048707 11.193181818181817  19.47324113048707 11.392045454545453  L 19.47324113048707 15.909090909090908  C 19.47324113048707 17.035984848484848  19.08368410503107 17.999526515151516  18.30457005411906 18.799715909090907  C 17.525456003207054 19.599905303030305  16.587292042493488 20  15.490078171978354 20  L 3.9831629585087196 20  C 2.8859490879935863 20  1.9477851272800162 19.599905303030305  1.1686710763680095 18.799715909090907  C 0.3895570254560031 17.999526515151516  0 17.035984848484848  0 15.909090909090908  L 0 4.090909090909092  C 0 2.964015151515149  0.3895570254560031 2.000473484848484  1.1686710763680095 1.2002840909090917  C 1.9477851272800162 0.400094696969695  2.8859490879935863 0  3.9831629585087196 0  L 15.490078171978354 0  C 16.07095610342754 0  16.61034275405893 0.11837121212121104  17.108238123872518 0.35511363636363535  C 17.246542393265184 0.4214015151515138  17.32952495490078 0.5303030303030298  17.357185808779317 0.6818181818181812  C 17.384846662657846 0.8428030303030298  17.34335538184005 0.9801136363636354  17.23271196632592 1.09375  L 16.555021046301864 1.789772727272727  C 16.46281820004009 1.884469696969695  16.356784926839048 1.9318181818181812  16.236921226698737 1.9318181818181812  C 16.209260372820204 1.9318181818181812  16.167769092002406 1.922348484848484  16.11244738424534 1.9034090909090917  C 15.900380837843256 1.8465909090909083  15.692924433754259 1.8181818181818188  15.490078171978354 2  L 3.9831629585087196 2  C 3.3746241731809983 1.8181818181818188  2.853678091801965 2.040719696969695  2.4203247143716173 2.485795454545454  C 1.9869713369412711 2.930871212121211  1.7702946482260975 3.4659090909090917  2 4.090909090909092  L 2 15.909090909090908  C 1.7702946482260975 16.534090909090907  1.9869713369412711 17.069128787878785  2.4203247143716173 17.514204545454547  C 2.853678091801965 17.959280303030305  3.3746241731809983 18.18181818181818  3.9831629585087196 18  L 15.490078171978354 18  C 16.09861695730607 18.18181818181818  16.619563038685108 17.959280303030305  17.052916416115455 17.514204545454547  C 17.486269793545805 17.069128787878785  17.702946482260977 16.534090909090907  17.702946482260977 15.909090909090908  L 17.702946482260977 12.301136363636363  C 17.702946482260977 12.178030303030303  17.74443776307877 12.073863636363637  17.82742032471437 11.988636363636363  L 18.71256764882742 11.079545454545453  C 18.804770495089198 10.984848484848484  18.910803768290243 10.9375  19.030667468430547 10.9375  C 19.085989176187613 10.9375  19.141310883944676 10.951704545454547  19.196632591701743 10.980113636363637  Z M 23 3.6363636363636354  C 23 3.9488636363636354  22.88935658448587 4.21875  22.66806975345761 4.446022727272727  L 11.41010222489477 16.008522727272727  C 11.188815393866507 16.235795454545453  10.926037282020447 16.34943181818182  10.621767889356585 16.34943181818182  C 10.317498496692725 16.34943181818182  10.054720384846663 16.235795454545453  9.8334335538184 16.008522727272727  L 3.8863499699338546 9.900568181818182  C 3.6650631389055923 9.673295454545453  3.554419723391461 9.403409090909092  3.554419723391461 9.090909090909092  C 3.554419723391461 8.77840909090909  3.6650631389055923 8.508522727272725  3.8863499699338546 8.28125  L 5.407696933253157 6.71875  C 5.628983764281419 6.491477272727273  5.891761876127481 6.377840909090908  6.196031268791341 6.377840909090908  C 6.500300661455202 6.377840909090908  6.763078773301263 6.491477272727273  6.9843656043295255 6.71875  L 10.621767889356585 10.454545454545453  L 19.570054119061936 1.2642045454545459  C 19.7913409500902 1.0369318181818188  20.05411906193626 0.9232954545454541  20.35838845460012 0.9232954545454541  C 20.66265784726398 0.9232954545454541  20.925435959110043 1.0369318181818188  21.146722790138305 1.2642045454545459  L 22.66806975345761 2.826704545454546  C 22.88935658448587 3.053977272727273  23 3.3238636363636354  23 3.6363636363636354  Z " fill-rule="nonzero" fill="#000000" stroke="none" transform="matrix(1 0 0 1 15 397 )" />
  </g>
</svg>