<?xml version="1.0" encoding="utf-8"?>
<svg version="1.1" xmlns:xlink="http://www.w3.org/1999/xlink" width="22px" height="20px" xmlns="http://www.w3.org/2000/svg">
  <g transform="matrix(1 0 0 1 -14 -230 )">
    <path d="M 13.729164021164024 15.905200000000013  L 16.609677219095122 15.90520651887523  C 17.078933504671543 15.00434834395137  18.029603556416603 14.399999999999999  19.14814814814815 14.399999999999999  C 20.745185185185186 14.399999999999999  22 15.632000000000017  22 17.2  C 22 18.767999999999986  20.745185185185186 20  19.14814814814815 20  C 17.837213365113755 20  16.75686854768187 19.169876123830953  16.411861910179713 18.005200000000016  L 13.729164021164024 18.005200000000016  C 12.657712804232803 18.005200000000016  11.630052063492064 17.601328000000013  10.871990264550263 16.88233  C 10.113928465608467 16.16333199999999  9.687435767195769 15.187966000000007  9.777777777777777 14.170600000000013  L 9.777777777777777 5.4387999999999925  C 9.685135661375663 4.977980200000002  9.491794074074075 4.536350200000015  9.14863597883598 4.210501599999998  C 8.805477883597884 3.8846571999999924  8.340369947089947 3.7011088000000196  7.855047619047618 3.7  L 5.558189220064891 3.700002959964058  C 5.183862640238185 4.814664036385238  4.126931685435958 5.6000000000000005  2.8518518518518516 5.6000000000000005  C 1.2548148148148142 5.6000000000000005  0 4.3679999999999835  0 2.8000000000000003  C 0 1.2320000000000164  1.2548148148148142 0  2.8518518518518516 0  C 4.009192084228687 0  4.986810693408259 0.6469978435101438  5.437399270297133 1.6  L 7.855047619047618 1.6  C 8.926941164021166 1.6011117105999801  9.95455767195767 2.0059102600000185  10.712486772486775 2.725583199999983  C 11.470415873015876 3.445257399999991  11.896775873015871 4.421026600000005  11.897925925925927 5.4387999999999925  L 11.897925925925927 14.170600000000013  C 11.897925925925927 14.398743999999988  11.945343492063493 14.624661999999988  12.037391957671957 14.835375999999997  C 12.129484656084658 15.046090000000003  12.26443894179894 15.237483999999995  12.434558306878305 15.398637999999982  C 12.604677671957672 15.559749999999985  12.806556190476188 15.687429999999996  13.028737566137567 15.77437  C 13.250874708994708 15.861310000000003  13.488891428571426 15.905745999999999  13.729164021164024 15.905200000000013  Z " fill-rule="nonzero" fill="#000000" stroke="none" transform="matrix(1 0 0 1 14 230 )" />
  </g>
</svg>