<?xml version="1.0" encoding="utf-8"?>
<svg version="1.1" xmlns:xlink="http://www.w3.org/1999/xlink" width="19px" height="23px" xmlns="http://www.w3.org/2000/svg">
  <g transform="matrix(1 0 0 1 -16 -284 )">
    <path d="M 4 15  L 4 22  C 4 22.560000000000002  3.5600000000000027 23  3 23  L 1 23  C 0.4399999999999977 23  0 22.560000000000002  0 22  L 0 15  C 0 14.439999999999998  0.4399999999999977 14  1 14  L 3 14  C 3.5600000000000027 14  4 14.439999999999998  4 15  Z M 9 1  L 9 22  C 9 22.560000000000002  8.560000000000002 23  8 23  L 6 23  C 5.439999999999998 23  5 22.560000000000002  5 22  L 5 1  C 5 0.4399999999999977  5.439999999999998 0  6 0  L 8 0  C 8.560000000000002 0  9 0.4399999999999977  9 1  Z M 14 22  C 14 22.560000000000002  13.560000000000002 23  13 23  L 11 23  C 10.439999999999998 23  10 22.560000000000002  10 22  L 10 10  C 10 9.439999999999998  10.439999999999998 9  11 9  L 13 9  C 13.560000000000002 9  14 9.439999999999998  14 10  L 14 22  Z M 18 23  L 16 23  C 15.439999999999998 23  15 22.560000000000002  15 22  L 15 5  C 15 4.439999999999998  15.439999999999998 4  16 4  L 18 4  C 18.560000000000002 4  19 4.439999999999998  19 5  L 19 22  C 19 22.560000000000002  18.560000000000002 23  18 23  Z " fill-rule="nonzero" fill="#000000" stroke="none" transform="matrix(1 0 0 1 16 284 )" />
  </g>
</svg>