<?xml version="1.0" encoding="utf-8"?>
<svg version="1.1" xmlns:xlink="http://www.w3.org/1999/xlink" width="36px" height="39px" xmlns="http://www.w3.org/2000/svg">
  <g transform="matrix(1 0 0 1 -1634 -64 )">
    <path d="M 11.146504035362831 16.64429230086568  C 12.964164293729343 18.47277171642144  15.4294402049138 19.500001328331905  18 19.500001328331905  C 19.916957451747017 19.50000132833191  21.79086685180664 18.92817445226404  23.38475858248197 17.856830854847654  C 24.978650313157303 16.785487257431264  26.22093778390151 15.26274542975488  26.954525580772987 13.481166092849993  C 27.68811337764446 11.699586755945104  27.88005341016329 9.739187046229901  27.506073584923378 7.847872550436763  C 27.132093759683457 5.956558054643624  26.208989491829506 4.219274435653082  24.85349596463717 2.855712680378957  C 23.498002437444832 1.4921509251048326  21.77100001848661 0.5635537136507084  19.890876476581276 0.1873478692764392  C 18.01075293467595 -0.18885797509782998  16.061951637268066 0.004224510553971564  14.290913948645958 0.7421788009161538  C 12.519876260023851 1.4801330912783364  11.00614453279055 2.7298147109829065  9.94114010150616 4.333193673993018  C 8.87613567022177 5.93657263700313  8.307692307692307 7.8216350066137315  8.307692307692307 9.750002656663805  C 8.307692307692307 12.335863050615712  9.328843776996319 14.815812885309917  11.146504035362831 16.64429230086568  Z M 36 33.42857218761823  C 36 26.01857295805073  24.007499841543343 22.285716562854688  18 22.285716562854688  C 11.992500158456656 22.285716562854688  0 26.01857295805073  0 33.42857218761823  C 0 33.42857218761823  0 39  0 39  L 36 39  C 36 39  36 33.42857218761823  36 33.42857218761823  Z " fill-rule="nonzero" fill="#45403e" stroke="none" transform="matrix(1 0 0 1 1634 64 )" />
  </g>
</svg>